<svg width="77" height="29" viewBox="0 0 77 29" fill="none" xmlns="http://www.w3.org/2000/svg">
<rect x="0.5" y="0.5" width="76" height="28" rx="2.5" stroke="#008139"/>
<rect x="10" y="9" width="10" height="2" fill="#008139"/>
<rect x="10" y="13" width="10" height="2" fill="#008139"/>
<rect x="10" y="17" width="10" height="2" fill="#008139"/>
<path d="M26.6846 8.33594H28.0542L31.5479 17.0298L35.0342 8.33594H36.4111L32.0752 19H31.0059L26.6846 8.33594ZM26.2378 8.33594H27.4463L27.644 14.8398V19H26.2378V8.33594ZM35.6421 8.33594H36.8506V19H35.4443V14.8398L35.6421 8.33594ZM42.417 19.1465C41.8652 19.1465 41.3647 19.0537 40.9155 18.8682C40.4712 18.6777 40.0879 18.4116 39.7656 18.0698C39.4482 17.728 39.2041 17.3228 39.0332 16.854C38.8623 16.3853 38.7769 15.8726 38.7769 15.3159V15.0083C38.7769 14.3638 38.8721 13.79 39.0625 13.2871C39.2529 12.7793 39.5117 12.3496 39.8389 11.998C40.166 11.6465 40.5371 11.3804 40.9521 11.1997C41.3672 11.019 41.7969 10.9287 42.2412 10.9287C42.8076 10.9287 43.2959 11.0264 43.7061 11.2217C44.1211 11.417 44.4604 11.6904 44.7241 12.042C44.9878 12.3887 45.1831 12.7988 45.3101 13.2725C45.437 13.7412 45.5005 14.2539 45.5005 14.8105V15.4185H39.5825V14.3125H44.1455V14.21C44.126 13.8584 44.0527 13.5166 43.9258 13.1846C43.8037 12.8525 43.6084 12.5791 43.3398 12.3643C43.0713 12.1494 42.7051 12.042 42.2412 12.042C41.9336 12.042 41.6504 12.1079 41.3916 12.2397C41.1328 12.3667 40.9106 12.5571 40.7251 12.811C40.5396 13.0649 40.3955 13.375 40.293 13.7412C40.1904 14.1074 40.1392 14.5298 40.1392 15.0083V15.3159C40.1392 15.6919 40.1904 16.0459 40.293 16.3779C40.4004 16.7051 40.5542 16.9932 40.7544 17.2422C40.9595 17.4912 41.2061 17.6865 41.4941 17.8281C41.7871 17.9697 42.1191 18.0405 42.4902 18.0405C42.9688 18.0405 43.374 17.9429 43.7061 17.7476C44.0381 17.5522 44.3286 17.291 44.5776 16.9639L45.3979 17.6157C45.2271 17.8745 45.0098 18.1211 44.7461 18.3555C44.4824 18.5898 44.1577 18.7803 43.772 18.9268C43.3911 19.0732 42.9395 19.1465 42.417 19.1465ZM52.4585 14.5103V15.6089H48.269V14.5103H52.4585ZM48.5547 11.0752V19H47.1997V11.0752H48.5547ZM53.5571 11.0752V19H52.1948V11.0752H53.5571ZM60.2515 14.437V15.543H56.04V14.437H60.2515ZM57.2192 11.0752V19H55.8643V11.0752H57.2192ZM59.0942 15.1255V14.957C59.0942 14.3857 59.1772 13.856 59.3433 13.3677C59.5093 12.8745 59.7485 12.4473 60.061 12.0859C60.3784 11.7197 60.7568 11.4365 61.1963 11.2363C61.6406 11.0312 62.1387 10.9287 62.6904 10.9287C63.252 10.9287 63.7549 11.0312 64.1992 11.2363C64.6436 11.4365 65.022 11.7197 65.3345 12.0859C65.6519 12.4473 65.8936 12.8745 66.0596 13.3677C66.2256 13.856 66.3086 14.3857 66.3086 14.957V15.1255C66.3086 15.6968 66.2256 16.2266 66.0596 16.7148C65.8936 17.2031 65.6543 17.6304 65.3418 17.9966C65.0293 18.3579 64.6509 18.6411 64.2065 18.8462C63.7622 19.0464 63.2617 19.1465 62.7051 19.1465C62.1484 19.1465 61.6479 19.0464 61.2036 18.8462C60.7593 18.6411 60.3784 18.3579 60.061 17.9966C59.7485 17.6304 59.5093 17.2031 59.3433 16.7148C59.1772 16.2266 59.0942 15.6968 59.0942 15.1255ZM60.4565 14.957V15.1255C60.4565 15.521 60.5029 15.8945 60.5957 16.2461C60.6885 16.5928 60.8276 16.9004 61.0132 17.1689C61.2036 17.4375 61.438 17.6499 61.7163 17.8062C61.9995 17.9575 62.3291 18.0332 62.7051 18.0332C63.0811 18.0332 63.4082 17.9575 63.6865 17.8062C63.9697 17.6499 64.2041 17.4375 64.3896 17.1689C64.5752 16.9004 64.7144 16.5928 64.8071 16.2461C64.9048 15.8945 64.9536 15.521 64.9536 15.1255V14.957C64.9536 14.5664 64.9048 14.1978 64.8071 13.8511C64.7144 13.4995 64.5728 13.1895 64.3823 12.9209C64.1968 12.6475 63.9624 12.4326 63.6792 12.2764C63.396 12.1201 63.0664 12.042 62.6904 12.042C62.3193 12.042 61.9946 12.1201 61.7163 12.2764C61.438 12.4326 61.2036 12.6475 61.0132 12.9209C60.8276 13.1895 60.6885 13.4995 60.5957 13.8511C60.5029 14.1978 60.4565 14.5664 60.4565 14.957Z" fill="#202020"/>
</svg>
